<mxfile host="app.diagrams.net" modified="2021-02-24T08:58:20.620Z" agent="5.0 (X11; Linux x86_64) AppleWebKit/537.36 (KHTML, like Gecko) Chrome/88.0.4324.182 Safari/537.36" etag="WpqyaVIUT52Ou2ukJqZG" version="14.3.1" type="github">
  <diagram id="3MmdfEX-Yjmr-JOF9PcV" name="Page-1">
    <mxGraphModel dx="542" dy="285" grid="1" gridSize="10" guides="1" tooltips="1" connect="1" arrows="1" fold="1" page="1" pageScale="1" pageWidth="827" pageHeight="1169" math="0" shadow="0">
      <root>
        <mxCell id="0" />
        <mxCell id="1" parent="0" />
        <mxCell id="YL2AKY2UTasLXl6dypVk-1" value="" style="ellipse;whiteSpace=wrap;html=1;aspect=fixed;" vertex="1" parent="1">
          <mxGeometry x="700" y="200" width="340" height="340" as="geometry" />
        </mxCell>
        <mxCell id="YL2AKY2UTasLXl6dypVk-2" value="" style="ellipse;whiteSpace=wrap;html=1;aspect=fixed;fillColor=#0000FF;strokeColor=none;" vertex="1" parent="1">
          <mxGeometry x="850" y="350" width="40" height="40" as="geometry" />
        </mxCell>
        <mxCell id="YL2AKY2UTasLXl6dypVk-3" value="" style="endArrow=none;html=1;exitX=1;exitY=0.5;exitDx=0;exitDy=0;strokeColor=#FFD966;strokeWidth=4;" edge="1" parent="1" source="YL2AKY2UTasLXl6dypVk-11">
          <mxGeometry width="50" height="50" relative="1" as="geometry">
            <mxPoint x="1029.9999999999945" y="369.71000000000004" as="sourcePoint" />
            <mxPoint x="1216" y="369.71000000000004" as="targetPoint" />
          </mxGeometry>
        </mxCell>
        <mxCell id="YL2AKY2UTasLXl6dypVk-4" value="" style="endArrow=none;html=1;exitX=1;exitY=0.5;exitDx=0;exitDy=0;strokeColor=#FFD966;strokeWidth=4;entryX=0;entryY=0.5;entryDx=0;entryDy=0;" edge="1" parent="1" source="YL2AKY2UTasLXl6dypVk-2" target="YL2AKY2UTasLXl6dypVk-11">
          <mxGeometry width="50" height="50" relative="1" as="geometry">
            <mxPoint x="890" y="370" as="sourcePoint" />
            <mxPoint x="964.0000000000057" y="370" as="targetPoint" />
          </mxGeometry>
        </mxCell>
        <mxCell id="YL2AKY2UTasLXl6dypVk-11" value="" style="ellipse;whiteSpace=wrap;html=1;fillColor=#660000;strokeColor=none;" vertex="1" parent="1">
          <mxGeometry x="1000" y="350" width="40" height="40" as="geometry" />
        </mxCell>
        <mxCell id="YL2AKY2UTasLXl6dypVk-14" value="" style="endArrow=none;html=1;strokeWidth=4;fillColor=#d5e8d4;strokeColor=#97D077;" edge="1" parent="1">
          <mxGeometry width="50" height="50" relative="1" as="geometry">
            <mxPoint x="610" y="330" as="sourcePoint" />
            <mxPoint x="1170" y="330" as="targetPoint" />
          </mxGeometry>
        </mxCell>
        <mxCell id="YL2AKY2UTasLXl6dypVk-15" value="" style="endArrow=none;html=1;strokeWidth=4;fillColor=#d5e8d4;strokeColor=#97D077;" edge="1" parent="1">
          <mxGeometry width="50" height="50" relative="1" as="geometry">
            <mxPoint x="620" y="410" as="sourcePoint" />
            <mxPoint x="1180" y="410" as="targetPoint" />
          </mxGeometry>
        </mxCell>
        <mxCell id="YL2AKY2UTasLXl6dypVk-16" value="" style="endArrow=none;html=1;strokeWidth=4;fillColor=#d5e8d4;strokeColor=#F19C99;" edge="1" parent="1">
          <mxGeometry width="50" height="50" relative="1" as="geometry">
            <mxPoint x="620" y="300" as="sourcePoint" />
            <mxPoint x="1180" y="300" as="targetPoint" />
          </mxGeometry>
        </mxCell>
        <mxCell id="YL2AKY2UTasLXl6dypVk-17" value="" style="endArrow=none;html=1;strokeWidth=4;fillColor=#d5e8d4;strokeColor=#F19C99;" edge="1" parent="1">
          <mxGeometry width="50" height="50" relative="1" as="geometry">
            <mxPoint x="610" y="440" as="sourcePoint" />
            <mxPoint x="1170" y="440" as="targetPoint" />
          </mxGeometry>
        </mxCell>
        <mxCell id="YL2AKY2UTasLXl6dypVk-18" value="" style="endArrow=oval;html=1;strokeWidth=4;strokeColor=#CCCCCC;startArrow=oval;startFill=1;endFill=1;" edge="1" parent="1">
          <mxGeometry width="50" height="50" relative="1" as="geometry">
            <mxPoint x="900" y="370" as="sourcePoint" />
            <mxPoint x="950" y="330" as="targetPoint" />
          </mxGeometry>
        </mxCell>
        <mxCell id="YL2AKY2UTasLXl6dypVk-19" value="" style="endArrow=oval;html=1;strokeWidth=4;strokeColor=#CCCCCC;startArrow=oval;startFill=1;endFill=1;" edge="1" parent="1">
          <mxGeometry width="50" height="50" relative="1" as="geometry">
            <mxPoint x="920" y="370" as="sourcePoint" />
            <mxPoint x="970" y="330" as="targetPoint" />
          </mxGeometry>
        </mxCell>
        <mxCell id="YL2AKY2UTasLXl6dypVk-20" value="" style="endArrow=oval;html=1;strokeWidth=4;strokeColor=#CCCCCC;startArrow=oval;startFill=1;endFill=1;" edge="1" parent="1">
          <mxGeometry width="50" height="50" relative="1" as="geometry">
            <mxPoint x="940" y="370" as="sourcePoint" />
            <mxPoint x="990" y="330" as="targetPoint" />
          </mxGeometry>
        </mxCell>
        <mxCell id="YL2AKY2UTasLXl6dypVk-21" value="" style="endArrow=oval;html=1;strokeWidth=4;strokeColor=#CCCCCC;startArrow=oval;startFill=1;endFill=1;" edge="1" parent="1">
          <mxGeometry width="50" height="50" relative="1" as="geometry">
            <mxPoint x="910" y="330" as="sourcePoint" />
            <mxPoint x="950" y="300" as="targetPoint" />
          </mxGeometry>
        </mxCell>
        <mxCell id="YL2AKY2UTasLXl6dypVk-22" value="" style="endArrow=oval;html=1;strokeWidth=4;strokeColor=#CCCCCC;startArrow=oval;startFill=1;endFill=1;" edge="1" parent="1">
          <mxGeometry width="50" height="50" relative="1" as="geometry">
            <mxPoint x="910" y="370" as="sourcePoint" />
            <mxPoint x="950" y="410" as="targetPoint" />
          </mxGeometry>
        </mxCell>
        <mxCell id="YL2AKY2UTasLXl6dypVk-23" value="" style="endArrow=oval;html=1;strokeWidth=4;strokeColor=#CCCCCC;startArrow=oval;startFill=1;endFill=1;" edge="1" parent="1">
          <mxGeometry width="50" height="50" relative="1" as="geometry">
            <mxPoint x="930" y="330" as="sourcePoint" />
            <mxPoint x="970" y="300" as="targetPoint" />
          </mxGeometry>
        </mxCell>
        <mxCell id="YL2AKY2UTasLXl6dypVk-24" value="" style="endArrow=oval;html=1;strokeWidth=4;strokeColor=#CCCCCC;startArrow=oval;startFill=1;endFill=1;" edge="1" parent="1">
          <mxGeometry width="50" height="50" relative="1" as="geometry">
            <mxPoint x="950" y="330" as="sourcePoint" />
            <mxPoint x="990" y="300" as="targetPoint" />
          </mxGeometry>
        </mxCell>
        <mxCell id="YL2AKY2UTasLXl6dypVk-25" value="" style="endArrow=oval;html=1;strokeWidth=4;strokeColor=#CCCCCC;startArrow=oval;startFill=1;endFill=1;" edge="1" parent="1">
          <mxGeometry width="50" height="50" relative="1" as="geometry">
            <mxPoint x="930" y="370" as="sourcePoint" />
            <mxPoint x="970" y="410" as="targetPoint" />
          </mxGeometry>
        </mxCell>
        <mxCell id="YL2AKY2UTasLXl6dypVk-26" value="" style="endArrow=oval;html=1;strokeWidth=4;strokeColor=#CCCCCC;startArrow=oval;startFill=1;endFill=1;" edge="1" parent="1">
          <mxGeometry width="50" height="50" relative="1" as="geometry">
            <mxPoint x="950" y="370" as="sourcePoint" />
            <mxPoint x="990" y="410" as="targetPoint" />
          </mxGeometry>
        </mxCell>
        <mxCell id="YL2AKY2UTasLXl6dypVk-27" value="" style="endArrow=oval;html=1;strokeWidth=4;strokeColor=#CCCCCC;startArrow=oval;startFill=1;endFill=1;" edge="1" parent="1">
          <mxGeometry width="50" height="50" relative="1" as="geometry">
            <mxPoint x="910" y="410" as="sourcePoint" />
            <mxPoint x="940" y="440" as="targetPoint" />
          </mxGeometry>
        </mxCell>
        <mxCell id="YL2AKY2UTasLXl6dypVk-28" value="" style="endArrow=oval;html=1;strokeWidth=4;strokeColor=#CCCCCC;startArrow=oval;startFill=1;endFill=1;" edge="1" parent="1">
          <mxGeometry width="50" height="50" relative="1" as="geometry">
            <mxPoint x="930" y="410" as="sourcePoint" />
            <mxPoint x="960" y="440" as="targetPoint" />
          </mxGeometry>
        </mxCell>
        <mxCell id="YL2AKY2UTasLXl6dypVk-29" value="" style="endArrow=oval;html=1;strokeWidth=4;strokeColor=#CCCCCC;startArrow=oval;startFill=1;endFill=1;" edge="1" parent="1">
          <mxGeometry width="50" height="50" relative="1" as="geometry">
            <mxPoint x="970" y="410" as="sourcePoint" />
            <mxPoint x="1000" y="440" as="targetPoint" />
          </mxGeometry>
        </mxCell>
        <mxCell id="YL2AKY2UTasLXl6dypVk-30" value="" style="endArrow=oval;html=1;strokeWidth=4;strokeColor=#CCCCCC;startArrow=oval;startFill=1;endFill=1;" edge="1" parent="1">
          <mxGeometry width="50" height="50" relative="1" as="geometry">
            <mxPoint x="950" y="410" as="sourcePoint" />
            <mxPoint x="980" y="440" as="targetPoint" />
          </mxGeometry>
        </mxCell>
        <mxCell id="YL2AKY2UTasLXl6dypVk-33" value="" style="endArrow=oval;html=1;strokeWidth=4;strokeColor=#CCCCCC;startArrow=oval;startFill=1;endFill=1;" edge="1" parent="1">
          <mxGeometry width="50" height="50" relative="1" as="geometry">
            <mxPoint x="1010" y="300" as="sourcePoint" />
            <mxPoint x="1050" y="270" as="targetPoint" />
          </mxGeometry>
        </mxCell>
        <mxCell id="YL2AKY2UTasLXl6dypVk-34" value="" style="endArrow=oval;html=1;strokeWidth=4;strokeColor=#CCCCCC;startArrow=oval;startFill=1;endFill=1;" edge="1" parent="1">
          <mxGeometry width="50" height="50" relative="1" as="geometry">
            <mxPoint x="1010" y="330" as="sourcePoint" />
            <mxPoint x="1050" y="300" as="targetPoint" />
          </mxGeometry>
        </mxCell>
        <mxCell id="YL2AKY2UTasLXl6dypVk-35" value="" style="endArrow=oval;html=1;strokeWidth=4;strokeColor=#CCCCCC;startArrow=oval;startFill=1;endFill=1;" edge="1" parent="1">
          <mxGeometry width="50" height="50" relative="1" as="geometry">
            <mxPoint x="1020" y="440" as="sourcePoint" />
            <mxPoint x="1050" y="470" as="targetPoint" />
          </mxGeometry>
        </mxCell>
        <mxCell id="YL2AKY2UTasLXl6dypVk-36" value="" style="endArrow=oval;html=1;strokeWidth=4;strokeColor=#CCCCCC;startArrow=oval;startFill=1;endFill=1;" edge="1" parent="1">
          <mxGeometry width="50" height="50" relative="1" as="geometry">
            <mxPoint x="1020" y="410" as="sourcePoint" />
            <mxPoint x="1050" y="440" as="targetPoint" />
            <Array as="points">
              <mxPoint x="1040" y="430" />
            </Array>
          </mxGeometry>
        </mxCell>
      </root>
    </mxGraphModel>
  </diagram>
</mxfile>
